<svg width="31" height="30" viewBox="0 0 31 30" fill="none" xmlns="http://www.w3.org/2000/svg">
<path d="M22.7452 15.3711C21.9177 15.3711 21.0982 15.5341 20.3336 15.8508C19.569 16.1675 18.8743 16.6317 18.2891 17.2169C17.704 17.8021 17.2398 18.4968 16.9231 19.2613C16.6064 20.0259 16.4434 20.8454 16.4434 21.673C16.4434 22.5005 16.6064 23.32 16.9231 24.0846C17.2398 24.8492 17.704 25.5439 18.2891 26.1291C18.8743 26.7143 19.569 27.1784 20.3336 27.4951C21.0982 27.8118 21.9177 27.9748 22.7452 27.9748C24.4166 27.9748 26.0195 27.3109 27.2013 26.1291C28.3832 24.9472 29.0471 23.3443 29.0471 21.673C29.0471 20.0016 28.3832 18.3987 27.2013 17.2169C26.0195 16.035 24.4166 15.3711 22.7452 15.3711ZM25.4171 21.2577L22.3412 23.7364C22.2542 23.8064 22.1541 23.8583 22.0469 23.8893C21.9396 23.9203 21.8273 23.9298 21.7163 23.917C21.6054 23.9043 21.4981 23.8697 21.4007 23.8152C21.3032 23.7607 21.2176 23.6874 21.1487 23.5995L19.9393 22.0573C19.8119 21.8805 19.7578 21.6612 19.7883 21.4454C19.8189 21.2296 19.9316 21.034 20.103 20.8994C20.2744 20.7648 20.4912 20.7016 20.7081 20.7231C20.925 20.7447 21.1252 20.8492 21.2668 21.0148L21.9493 21.8848L24.3596 19.9423C24.5342 19.8024 24.7571 19.7373 24.9796 19.7614C25.202 19.7854 25.4059 19.8967 25.5465 20.0708C25.8371 20.4336 25.7809 20.9642 25.4171 21.2577Z" fill="#BABABA"/>
<path d="M23.4969 2.92637H21.4438V2.87012C21.4438 2.41074 21.0594 2.02637 20.6 2.02637C20.1313 2.02637 19.7469 2.41074 19.7469 2.87012V2.92637H15.5094V2.87012C15.5094 2.41074 15.125 2.02637 14.6656 2.02637C14.1969 2.02637 13.8219 2.41074 13.8219 2.87012V2.92637H9.575V2.87012C9.575 2.41074 9.2 2.02637 8.73125 2.02637C8.2625 2.02637 7.8875 2.41074 7.8875 2.87012V2.92637H5.83438C3.69688 2.92637 1.95312 4.67012 1.95312 6.80762V21.0576C1.95312 23.1951 3.69688 24.9389 5.83438 24.9389H15.7738C15.2898 23.9179 15.0381 22.8024 15.0369 21.6726C15.0369 17.4229 18.4944 13.9645 22.745 13.9645C24.4803 13.9645 26.0788 14.5486 27.3688 15.5198V6.80762C27.3688 5.77987 26.9611 4.79407 26.2353 4.06647C25.5094 3.33886 24.5246 2.92885 23.4969 2.92637ZM8.88688 17.9507H7.98219C7.75841 17.9507 7.5438 17.8618 7.38557 17.7036C7.22733 17.5454 7.13844 17.3308 7.13844 17.107C7.13844 16.8832 7.22733 16.6686 7.38557 16.5104C7.5438 16.3521 7.75841 16.2632 7.98219 16.2632H8.88688C9.11065 16.2632 9.32526 16.3521 9.4835 16.5104C9.64173 16.6686 9.73063 16.8832 9.73063 17.107C9.73063 17.3308 9.64173 17.5454 9.4835 17.7036C9.32526 17.8618 9.11065 17.9507 8.88688 17.9507ZM8.88688 12.5011H7.98219C7.75841 12.5011 7.5438 12.4122 7.38557 12.2539C7.22733 12.0957 7.13844 11.8811 7.13844 11.6573C7.13844 11.4335 7.22733 11.2189 7.38557 11.0607C7.5438 10.9024 7.75841 10.8136 7.98219 10.8136H8.88688C9.11065 10.8136 9.32526 10.9024 9.4835 11.0607C9.64173 11.2189 9.73063 11.4335 9.73063 11.6573C9.73063 11.8811 9.64173 12.0957 9.4835 12.2539C9.32526 12.4122 9.11065 12.5011 8.88688 12.5011ZM15.1147 17.9507H14.21C13.9862 17.9507 13.7716 17.8618 13.6134 17.7036C13.4551 17.5454 13.3663 17.3308 13.3663 17.107C13.3663 16.8832 13.4551 16.6686 13.6134 16.5104C13.7716 16.3521 13.9862 16.2632 14.21 16.2632H15.1147C15.3385 16.2632 15.5531 16.3521 15.7113 16.5104C15.8695 16.6686 15.9584 16.8832 15.9584 17.107C15.9584 17.3308 15.8695 17.5454 15.7113 17.7036C15.5531 17.8618 15.3385 17.9507 15.1147 17.9507ZM15.1147 12.5011H14.21C13.9862 12.5011 13.7716 12.4122 13.6134 12.2539C13.4551 12.0957 13.3663 11.8811 13.3663 11.6573C13.3663 11.4335 13.4551 11.2189 13.6134 11.0607C13.7716 10.9024 13.9862 10.8136 14.21 10.8136H15.1147C15.3385 10.8136 15.5531 10.9024 15.7113 11.0607C15.8695 11.2189 15.9584 11.4335 15.9584 11.6573C15.9584 11.8811 15.8695 12.0957 15.7113 12.2539C15.5531 12.4122 15.3385 12.5011 15.1147 12.5011ZM21.3416 12.5011H20.4378C20.214 12.5011 19.9994 12.4122 19.8412 12.2539C19.683 12.0957 19.5941 11.8811 19.5941 11.6573C19.5941 11.4335 19.683 11.2189 19.8412 11.0607C19.9994 10.9024 20.214 10.8136 20.4378 10.8136H21.3416C21.5653 10.8136 21.78 10.9024 21.9382 11.0607C22.0964 11.2189 22.1853 11.4335 22.1853 11.6573C22.1853 11.8811 22.0964 12.0957 21.9382 12.2539C21.78 12.4122 21.5653 12.5011 21.3416 12.5011Z" fill="#BABABA"/>
</svg>
