<svg width="24" height="25" viewBox="0 0 24 25" fill="none" xmlns="http://www.w3.org/2000/svg">
<path d="M23.4415 9.10495C23.0336 8.69923 22.3741 8.70103 21.9683 9.1089L9.44616 21.6988C7.82156 23.3234 5.18298 23.3234 3.55535 21.6966C1.92895 20.0694 1.92895 17.4308 3.55555 15.8042L16.4484 2.84362C17.4627 1.82939 19.1117 1.82939 20.1289 2.84582C21.1458 3.86274 21.1458 5.51155 20.1286 6.52877L9.44812 17.2092L9.44616 17.2113C9.03927 17.616 8.38169 17.6155 7.97562 17.2094C7.56887 16.8026 7.56887 16.1434 7.97562 15.7366L13.131 10.5802C13.5378 10.1733 13.5377 9.51375 13.1309 9.107C12.724 8.70025 12.0644 8.7003 11.6577 9.10715L6.50234 14.2635C5.28205 15.4838 5.28205 17.4622 6.50244 18.6825C7.72278 19.9029 9.70115 19.9029 10.9215 18.6825C10.923 18.6811 10.9241 18.6796 10.9254 18.6782L21.6018 8.00185C23.4326 6.17104 23.4326 3.2031 21.6018 1.3723C19.7707 -0.457433 16.803 -0.457433 14.9732 1.3723L2.08041 14.333C-0.357827 16.7712 -0.357827 20.7286 2.08217 23.1698C4.52378 25.6101 8.4812 25.6101 10.9213 23.17L23.4455 10.5781C23.8512 10.1702 23.8494 9.51067 23.4415 9.10495Z" fill="#F5382C"/>
</svg>
