<svg width="18" height="20" viewBox="0 0 18 20" fill="none" xmlns="http://www.w3.org/2000/svg">
<path fill-rule="evenodd" clip-rule="evenodd" d="M12.9874 0.768617L12.9883 1.51824C15.504 1.73413 17.1657 3.61119 17.1684 6.48975L17.1783 14.9155C17.1819 18.054 15.3813 19.985 12.4951 19.99L5.44508 20C2.57691 20.004 0.753765 18.027 0.750159 14.8795L0.74024 6.55272C0.736634 3.65517 2.33978 1.78311 4.8554 1.53024L4.8545 0.780611C4.8536 0.340832 5.15114 0.00999726 5.54787 0.00999726C5.9446 0.00899776 6.24215 0.338833 6.24305 0.778612L6.24395 1.47826L11.5998 1.47027L11.5989 0.770616C11.598 0.330837 11.8955 0.00100177 12.2923 2.26549e-06C12.68 -0.000997234 12.9865 0.328838 12.9874 0.768617ZM2.12969 6.86157L15.7808 6.84158V6.49175C15.742 4.34283 14.7574 3.21539 12.9901 3.04748L12.991 3.81709C12.991 4.24688 12.6854 4.5877 12.2977 4.5877C11.9009 4.5887 11.6025 4.24887 11.6025 3.81909L11.6016 3.0095L6.24575 3.01749L6.24666 3.82609C6.24666 4.25687 5.95001 4.5967 5.55328 4.5967C5.15655 4.5977 4.8581 4.25887 4.8581 3.82809L4.8572 3.05847C3.09897 3.25137 2.12609 4.38281 2.12879 6.55072L2.12969 6.86157ZM11.9181 11.4043V11.4153C11.9271 11.8751 12.2697 12.2239 12.6854 12.2139C13.0911 12.2029 13.4148 11.8221 13.4058 11.3623C13.3869 10.9225 13.0614 10.5637 12.6565 10.5647C12.2418 10.5747 11.9172 10.9445 11.9181 11.4043ZM12.6628 15.892C12.2481 15.882 11.9136 15.5032 11.9127 15.0435C11.9036 14.5837 12.2364 14.2029 12.6511 14.1919H12.6601C13.0839 14.1919 13.4274 14.5707 13.4274 15.0405C13.4283 15.5102 13.0857 15.891 12.6628 15.892ZM8.20325 11.4203C8.22128 11.8801 8.56481 12.2389 8.97958 12.2189C9.38532 12.1979 9.70902 11.8181 9.69098 11.3583C9.68106 10.9085 9.34745 10.5587 8.94171 10.5597C8.52694 10.5797 8.20235 10.9605 8.20325 11.4203ZM8.98318 15.8471C8.56842 15.8671 8.22579 15.5082 8.20686 15.0485C8.20686 14.5887 8.53055 14.2089 8.94531 14.1879C9.35106 14.1869 9.68557 14.5367 9.69459 14.9855C9.71352 15.4463 9.38893 15.8261 8.98318 15.8471ZM4.48843 11.4553C4.50646 11.915 4.84999 12.2749 5.26475 12.2539C5.6705 12.2339 5.99419 11.8531 5.97526 11.3933C5.96624 10.9435 5.63263 10.5937 5.22598 10.5947C4.81122 10.6147 4.48752 10.9955 4.48843 11.4553ZM5.26836 15.8521C4.8536 15.8731 4.51097 15.5132 4.49203 15.0535C4.49113 14.5937 4.81573 14.2129 5.23049 14.1929C5.63623 14.1919 5.97075 14.5417 5.97977 14.9915C5.9987 15.4513 5.67501 15.8321 5.26836 15.8521Z" fill="#4E4E4E"/>
</svg>
