<svg width="36" height="36" viewBox="0 0 36 36" fill="none" xmlns="http://www.w3.org/2000/svg">
<rect width="36" height="36" rx="8" fill="#F5382C"/>
<path d="M11.7305 12.0628H24.2305C24.3765 12.0627 24.5224 12.072 24.6672 12.0905C24.6181 11.7459 24.4997 11.4148 24.3192 11.1171C24.1387 10.8195 23.8998 10.5615 23.6168 10.3587C23.3339 10.1559 23.0129 10.0125 22.673 9.93713C22.3332 9.86176 21.9816 9.856 21.6395 9.92018L11.3594 11.6753H11.3477C10.7024 11.7987 10.1285 12.1637 9.74336 12.696C10.3237 12.2832 11.0183 12.0618 11.7305 12.0628ZM24.2305 13.0003H11.7305C11.0676 13.001 10.4322 13.2646 9.9635 13.7333C9.49482 14.202 9.23119 14.8374 9.23047 15.5003V23.0003C9.23119 23.6631 9.49482 24.2985 9.9635 24.7672C10.4322 25.2359 11.0676 25.4995 11.7305 25.5003H24.2305C24.8933 25.4995 25.5288 25.2359 25.9974 24.7672C26.4661 24.2985 26.7297 23.6631 26.7305 23.0003V15.5003C26.7297 14.8374 26.4661 14.202 25.9974 13.7333C25.5288 13.2646 24.8933 13.001 24.2305 13.0003ZM22.375 20.5003C22.1278 20.5003 21.8861 20.427 21.6805 20.2896C21.475 20.1522 21.3148 19.957 21.2201 19.7286C21.1255 19.5002 21.1008 19.2489 21.149 19.0064C21.1972 18.7639 21.3163 18.5412 21.4911 18.3664C21.6659 18.1916 21.8887 18.0725 22.1311 18.0243C22.3736 17.976 22.6249 18.0008 22.8534 18.0954C23.0818 18.19 23.277 18.3502 23.4143 18.5558C23.5517 18.7614 23.625 19.003 23.625 19.2503C23.625 19.5818 23.4933 19.8997 23.2589 20.1341C23.0245 20.3686 22.7065 20.5003 22.375 20.5003Z" fill="#FEEBEA"/>
<path d="M9.25 18.1367V14.25C9.25 13.4035 9.71875 11.9844 11.3457 11.677C12.7266 11.418 14.0938 11.418 14.0938 11.418C14.0938 11.418 14.9922 12.043 14.25 12.043C13.5078 12.043 13.5273 13 14.25 13C14.9727 13 14.25 13.918 14.25 13.918L11.3398 17.2188L9.25 18.1367Z" fill="#FEEBEA"/>
</svg>
