<svg width="21" height="21" viewBox="0 0 21 21" fill="none" xmlns="http://www.w3.org/2000/svg">
<path d="M17.1875 3.59277H4.6875C3.65197 3.59277 2.8125 4.43224 2.8125 5.46777V16.7178C2.8125 17.7533 3.65197 18.5928 4.6875 18.5928H17.1875C18.223 18.5928 19.0625 17.7533 19.0625 16.7178V5.46777C19.0625 4.43224 18.223 3.59277 17.1875 3.59277Z" stroke="#F5382C" stroke-linejoin="round"/>
<path d="M12.5 10.4678C13.0178 10.4678 13.4375 10.048 13.4375 9.53027C13.4375 9.01251 13.0178 8.59277 12.5 8.59277C11.9822 8.59277 11.5625 9.01251 11.5625 9.53027C11.5625 10.048 11.9822 10.4678 12.5 10.4678Z" fill="#F5382C"/>
<path d="M15.625 10.4678C16.1428 10.4678 16.5625 10.048 16.5625 9.53027C16.5625 9.01251 16.1428 8.59277 15.625 8.59277C15.1072 8.59277 14.6875 9.01251 14.6875 9.53027C14.6875 10.048 15.1072 10.4678 15.625 10.4678Z" fill="#F5382C"/>
<path d="M12.5 13.5928C13.0178 13.5928 13.4375 13.173 13.4375 12.6553C13.4375 12.1375 13.0178 11.7178 12.5 11.7178C11.9822 11.7178 11.5625 12.1375 11.5625 12.6553C11.5625 13.173 11.9822 13.5928 12.5 13.5928Z" fill="#F5382C"/>
<path d="M15.625 13.5928C16.1428 13.5928 16.5625 13.173 16.5625 12.6553C16.5625 12.1375 16.1428 11.7178 15.625 11.7178C15.1072 11.7178 14.6875 12.1375 14.6875 12.6553C14.6875 13.173 15.1072 13.5928 15.625 13.5928Z" fill="#F5382C"/>
<path d="M6.25 13.5928C6.76777 13.5928 7.1875 13.173 7.1875 12.6553C7.1875 12.1375 6.76777 11.7178 6.25 11.7178C5.73223 11.7178 5.3125 12.1375 5.3125 12.6553C5.3125 13.173 5.73223 13.5928 6.25 13.5928Z" fill="#F5382C"/>
<path d="M9.375 13.5928C9.89277 13.5928 10.3125 13.173 10.3125 12.6553C10.3125 12.1375 9.89277 11.7178 9.375 11.7178C8.85723 11.7178 8.4375 12.1375 8.4375 12.6553C8.4375 13.173 8.85723 13.5928 9.375 13.5928Z" fill="#F5382C"/>
<path d="M6.25 16.7178C6.76777 16.7178 7.1875 16.298 7.1875 15.7803C7.1875 15.2625 6.76777 14.8428 6.25 14.8428C5.73223 14.8428 5.3125 15.2625 5.3125 15.7803C5.3125 16.298 5.73223 16.7178 6.25 16.7178Z" fill="#F5382C"/>
<path d="M9.375 16.7178C9.89277 16.7178 10.3125 16.298 10.3125 15.7803C10.3125 15.2625 9.89277 14.8428 9.375 14.8428C8.85723 14.8428 8.4375 15.2625 8.4375 15.7803C8.4375 16.298 8.85723 16.7178 9.375 16.7178Z" fill="#F5382C"/>
<path d="M12.5 16.7178C13.0178 16.7178 13.4375 16.298 13.4375 15.7803C13.4375 15.2625 13.0178 14.8428 12.5 14.8428C11.9822 14.8428 11.5625 15.2625 11.5625 15.7803C11.5625 16.298 11.9822 16.7178 12.5 16.7178Z" fill="#F5382C"/>
<path d="M5.9375 2.34277V3.59277M15.9375 2.34277V3.59277" stroke="#F5382C" stroke-width="1.5" stroke-linecap="round" stroke-linejoin="round"/>
<path d="M19.0625 6.71777H2.8125" stroke="#F5382C" stroke-linejoin="round"/>
</svg>
