<svg width="28" height="29" viewBox="0 0 28 29" fill="none" xmlns="http://www.w3.org/2000/svg">
<path d="M2.33203 22.6673C2.33203 24.6507 3.8487 26.1673 5.83203 26.1673H22.1654C24.1487 26.1673 25.6654 24.6507 25.6654 22.6673V13.334H2.33203V22.6673ZM22.1654 5.16732H19.832V4.00065C19.832 3.30065 19.3654 2.83398 18.6654 2.83398C17.9654 2.83398 17.4987 3.30065 17.4987 4.00065V5.16732H10.4987V4.00065C10.4987 3.30065 10.032 2.83398 9.33203 2.83398C8.63203 2.83398 8.16537 3.30065 8.16537 4.00065V5.16732H5.83203C3.8487 5.16732 2.33203 6.68398 2.33203 8.66732V11.0007H25.6654V8.66732C25.6654 6.68398 24.1487 5.16732 22.1654 5.16732Z" fill="white"/>
</svg>
