<svg width="24" height="25" viewBox="0 0 24 25" fill="none" xmlns="http://www.w3.org/2000/svg">
<path d="M12 12.5C14.7614 12.5 17 10.2614 17 7.5C17 4.73858 14.7614 2.5 12 2.5C9.23858 2.5 7 4.73858 7 7.5C7 10.2614 9.23858 12.5 12 12.5Z" stroke="#222222" stroke-width="1.5" stroke-linecap="round" stroke-linejoin="round"/>
<path d="M19.2091 16.24L15.669 19.7801C15.529 19.9201 15.3991 20.18 15.3691 20.37L15.1791 21.72C15.1091 22.21 15.4491 22.55 15.9391 22.48L17.289 22.29C17.479 22.26 17.7491 22.13 17.8791 21.99L21.419 18.45C22.029 17.84 22.319 17.13 21.419 16.23C20.529 15.34 19.8191 15.63 19.2091 16.24Z" stroke="#222222" stroke-width="1.5" stroke-miterlimit="10" stroke-linecap="round" stroke-linejoin="round"/>
<path d="M18.6992 16.75C18.9992 17.83 19.8392 18.67 20.9192 18.97" stroke="#222222" stroke-width="1.5" stroke-miterlimit="10" stroke-linecap="round" stroke-linejoin="round"/>
<path d="M3.41016 22.5C3.41016 18.63 7.26018 15.5 12.0002 15.5C13.0402 15.5 14.0402 15.65 14.9702 15.93" stroke="#222222" stroke-width="1.5" stroke-linecap="round" stroke-linejoin="round"/>
</svg>
