<svg width="25" height="25" viewBox="0 0 25 25" fill="none" xmlns="http://www.w3.org/2000/svg">
<path fill-rule="evenodd" clip-rule="evenodd" d="M24.02 12.7729C24.02 11.922 23.9436 11.1038 23.8018 10.3184H12.5V14.9602H18.9582C18.68 16.4602 17.8345 17.7311 16.5636 18.582V21.5929H20.4418C22.7109 19.5038 24.02 16.4274 24.02 12.7729Z" fill="#4285F4"/>
<path fill-rule="evenodd" clip-rule="evenodd" d="M12.499 24.4998C15.739 24.4998 18.4554 23.4252 20.4408 21.5925L16.5627 18.5816C15.4881 19.3016 14.1136 19.7271 12.499 19.7271C9.37357 19.7271 6.72812 17.6161 5.78448 14.7798H1.77539V17.8889C3.74994 21.8107 7.80812 24.4998 12.499 24.4998Z" fill="#34A853"/>
<path fill-rule="evenodd" clip-rule="evenodd" d="M5.78545 14.7799C5.54545 14.0599 5.40909 13.2908 5.40909 12.4999C5.40909 11.709 5.54545 10.9399 5.78545 10.2199V7.11084H1.77636C0.963636 8.73084 0.5 10.5636 0.5 12.4999C0.5 14.4363 0.963636 16.269 1.77636 17.889L5.78545 14.7799Z" fill="#FBBC05"/>
<path fill-rule="evenodd" clip-rule="evenodd" d="M12.499 5.27273C14.2608 5.27273 15.8427 5.87818 17.0863 7.06727L20.5281 3.62545C18.4499 1.68909 15.7336 0.5 12.499 0.5C7.80812 0.5 3.74994 3.18909 1.77539 7.11091L5.78448 10.22C6.72812 7.38364 9.37357 5.27273 12.499 5.27273Z" fill="#EA4335"/>
</svg>
