<svg width="31" height="30" viewBox="0 0 31 30" fill="none" xmlns="http://www.w3.org/2000/svg">
<path fill-rule="evenodd" clip-rule="evenodd" d="M26.0988 9.47263L19.3663 3.90638C18.2828 2.99791 16.914 2.5 15.5 2.5C14.086 2.5 12.7172 2.99791 11.6337 3.90638L4.90125 9.47263C3.68875 10.4764 3 11.9964 3 13.5826V22.2639C3 25.0826 5.1675 27.5001 8 27.5001H10.5C11.163 27.5001 11.7989 27.2367 12.2678 26.7679C12.7366 26.2991 13 25.6632 13 25.0001V20.9351C13 19.3501 14.19 18.1976 15.5 18.1976C16.81 18.1976 18 19.3501 18 20.9351V25.0001C18 25.6632 18.2634 26.2991 18.7322 26.7679C19.2011 27.2367 19.837 27.5001 20.5 27.5001H23C25.8325 27.5001 28 25.0826 28 22.2626V13.5826C28 11.9964 27.3125 10.4764 26.0988 9.47263Z" fill="#F5382C"/>
</svg>
