<svg width="16" height="17" viewBox="0 0 16 17" fill="none" xmlns="http://www.w3.org/2000/svg">
<path fill-rule="evenodd" clip-rule="evenodd" d="M12.6016 4.66318V5.94096C14.0369 6.38897 15.0827 7.68828 15.0827 9.24017V13.3543C15.0827 15.2755 13.4899 16.8332 11.5262 16.8332H4.47335C2.50881 16.8332 0.916016 15.2755 0.916016 13.3543V9.24017C0.916016 7.68828 1.96264 6.38897 3.39709 5.94096V4.66318C3.40556 2.17883 5.46324 0.166504 7.98665 0.166504C10.5439 0.166504 12.6016 2.17883 12.6016 4.66318ZM8.00358 1.61571C9.72255 1.61571 11.1197 2.9821 11.1197 4.66318V5.76126H4.87896V4.64661C4.88742 2.97382 6.28461 1.61571 8.00358 1.61571ZM8.74028 12.2123C8.74028 12.6181 8.41004 12.941 7.99511 12.941C7.58866 12.941 7.25841 12.6181 7.25841 12.2123V10.3739C7.25841 9.97637 7.58866 9.6534 7.99511 9.6534C8.41004 9.6534 8.74028 9.97637 8.74028 10.3739V12.2123Z" fill="#070707"/>
</svg>
