<svg width="33" height="32" viewBox="0 0 33 32" fill="none" xmlns="http://www.w3.org/2000/svg">
<g clip-path="url(#clip0_11712_5874)">
<path d="M23.5148 19.8099H25.8005V22.0956H2.94336V19.8099H5.22907L5.22907 11.8098C5.22907 9.38501 6.19234 7.05949 7.90695 5.34487C9.62157 3.63025 11.9471 2.66699 14.3719 2.66699C16.7968 2.66699 19.1223 3.63025 20.8369 5.34487C22.5515 7.05949 23.5148 9.38501 23.5148 11.8098V19.8099ZM21.2291 19.8099V11.8098C21.2291 9.99122 20.5066 8.24708 19.2207 6.96112C17.9347 5.67515 16.1906 4.95271 14.3719 4.95271C12.5533 4.95271 10.8092 5.67515 9.5232 6.96112C8.23723 8.24708 7.51479 9.99122 7.51479 11.8098V19.8099H21.2291ZM10.9434 24.3813H17.8005V26.667H10.9434L10.9434 24.3813Z" fill="black"/>
<circle cx="20.1113" cy="4.16699" r="4.5" fill="#F30000"/>
</g>
<defs>
<clipPath id="clip0_11712_5874">
<rect width="32" height="32" fill="white" transform="translate(0.277344)"/>
</clipPath>
</defs>
</svg>
