<svg width="24" height="25" viewBox="0 0 24 25" fill="none" xmlns="http://www.w3.org/2000/svg">
<path d="M5.636 18.8639C7.10845 20.3364 9.04594 21.2527 11.1183 21.4567C13.1906 21.6607 15.2696 21.1398 17.0009 19.9827C18.7322 18.8256 20.0087 17.104 20.6129 15.1112C21.217 13.1184 21.1115 10.9778 20.3142 9.05408C19.5169 7.13039 18.0772 5.5427 16.2404 4.56158C14.4037 3.58045 12.2835 3.2666 10.2413 3.67352C8.19909 4.08043 6.36116 5.18293 5.04073 6.79312C3.72031 8.40332 2.99909 10.4216 3 12.5039V14.4999" stroke="#222222" stroke-linecap="round" stroke-linejoin="round"/>
<path d="M1 12.5L3 14.5L5 12.5M11 8.5V13.5H16" stroke="#222222" stroke-linecap="round" stroke-linejoin="round"/>
</svg>
