<svg width="24" height="24" viewBox="0 0 24 24" fill="none" xmlns="http://www.w3.org/2000/svg">
<path d="M20.3981 9.8772L16.056 6.03945H14.2046L16.2983 9.8772H20.3981ZM7.896 6.03945H6.04462L1.70663 9.8772H5.8065L7.896 6.03945ZM15.3926 9.8772L13.299 6.03945H8.802L6.71212 9.8772H15.3926ZM6.62475 10.6718L11.0227 21.7276L15.4721 10.6718H6.62475ZM1.5 10.6718L9.74738 20.6629L5.7705 10.6718H1.5ZM16.3301 10.6718L12.3574 20.5358L20.5969 10.6718H16.3301ZM2.81925 4.16295H3.5175V4.86195C3.5175 4.96737 3.55938 5.06848 3.63392 5.14302C3.70847 5.21757 3.80958 5.25945 3.915 5.25945C4.02042 5.25945 4.12153 5.21757 4.19607 5.14302C4.27062 5.06848 4.3125 4.96737 4.3125 4.86195V4.16295H5.01038C5.11364 4.15978 5.21161 4.11653 5.28353 4.04236C5.35545 3.9682 5.39567 3.86895 5.39567 3.76564C5.39567 3.66233 5.35545 3.56308 5.28353 3.48891C5.21161 3.41475 5.11364 3.3715 5.01038 3.36832H4.3125V2.67045C4.31413 2.61725 4.30507 2.56426 4.28584 2.51463C4.26661 2.46499 4.2376 2.41973 4.20055 2.38152C4.16349 2.34331 4.11914 2.31293 4.07012 2.29218C4.0211 2.27143 3.96842 2.26074 3.91519 2.26074C3.86196 2.26074 3.80927 2.27143 3.76026 2.29218C3.71124 2.31293 3.66688 2.34331 3.62983 2.38152C3.59277 2.41973 3.56377 2.46499 3.54454 2.51463C3.52531 2.56426 3.51624 2.61725 3.51787 2.67045V3.3687H2.81925C2.71599 3.37187 2.61802 3.41512 2.5461 3.48929C2.47418 3.56345 2.43396 3.6627 2.43396 3.76601C2.43396 3.86932 2.47418 3.96857 2.5461 4.04274C2.61802 4.1169 2.71599 4.15978 2.81925 4.16295ZM22.1104 14.6011H21.4121V13.9024C21.409 13.7992 21.3657 13.7012 21.2915 13.6293C21.2174 13.5574 21.1181 13.5172 21.0148 13.5172C20.9115 13.5172 20.8123 13.5574 20.7381 13.6293C20.6639 13.7012 20.6207 13.7992 20.6175 13.9024V14.6011H19.9189C19.8657 14.5994 19.8127 14.6085 19.7631 14.6277C19.7134 14.647 19.6682 14.676 19.6299 14.713C19.5917 14.7501 19.5613 14.7944 19.5406 14.8435C19.5199 14.8925 19.5092 14.9452 19.5092 14.9984C19.5092 15.0516 19.5199 15.1043 19.5406 15.1533C19.5613 15.2023 19.5917 15.2467 19.6299 15.2837C19.6682 15.3208 19.7134 15.3498 19.7631 15.369C19.8127 15.3883 19.8657 15.3973 19.9189 15.3957H20.6175V16.0939C20.6159 16.1472 20.6249 16.2001 20.6442 16.2498C20.6634 16.2994 20.6924 16.3447 20.7295 16.3829C20.7665 16.4211 20.8109 16.4515 20.8599 16.4722C20.9089 16.493 20.9616 16.5037 21.0148 16.5037C21.068 16.5037 21.1207 16.493 21.1697 16.4722C21.2188 16.4515 21.2631 16.4211 21.3002 16.3829C21.3372 16.3447 21.3662 16.2994 21.3855 16.2498C21.4047 16.2001 21.4138 16.1472 21.4121 16.0939V15.3957H22.1104C22.2136 15.3925 22.3116 15.3493 22.3835 15.2751C22.4554 15.2009 22.4957 15.1017 22.4957 14.9984C22.4957 14.8951 22.4554 14.7958 22.3835 14.7217C22.3116 14.6475 22.2136 14.6042 22.1104 14.6011Z" fill="url(#paint0_linear_12360_4194)"/>
<defs>
<linearGradient id="paint0_linear_12360_4194" x1="1.5" y1="11.9942" x2="22.4957" y2="11.9942" gradientUnits="userSpaceOnUse">
<stop stop-color="#F75A50"/>
<stop offset="1" stop-color="#BB0D02"/>
</linearGradient>
</defs>
</svg>
