<svg width="30" height="30" viewBox="0 0 30 30" fill="none" xmlns="http://www.w3.org/2000/svg">
<path fill-rule="evenodd" clip-rule="evenodd" d="M14.9991 2.5C13.3415 2.5 11.7517 3.15848 10.5796 4.33058C9.40754 5.50269 8.74906 7.0924 8.74906 8.75C8.74906 10.4076 9.40754 11.9973 10.5796 13.1694C11.7517 14.3415 13.3415 15 14.9991 15C16.6567 15 18.2464 14.3415 19.4185 13.1694C20.5906 11.9973 21.2491 10.4076 21.2491 8.75C21.2491 7.0924 20.5906 5.50269 19.4185 4.33058C18.2464 3.15848 16.6567 2.5 14.9991 2.5ZM14.9991 16.25C10.0453 16.25 6.85906 18.0575 5.17156 20.8188C4.12531 22.5312 4.52531 24.3162 5.59656 25.5588C6.62281 26.7525 8.27656 27.5 9.99906 27.5H19.9991C21.7216 27.5 23.3753 26.7525 24.4016 25.5588C25.4728 24.3162 25.8728 22.5325 24.8266 20.8188C23.1391 18.0575 19.9528 16.25 14.9991 16.25Z" fill="#BABABA"/>
</svg>
