<svg width="24" height="25" viewBox="0 0 24 25" fill="none" xmlns="http://www.w3.org/2000/svg">
<g clip-path="url(#clip0_12253_2211)">
<path d="M15.6895 3.00781V3.71094H14.9863C14.9402 3.71093 14.8944 3.72002 14.8518 3.73769C14.8091 3.75535 14.7704 3.78125 14.7377 3.81389C14.7051 3.84654 14.6792 3.8853 14.6615 3.92796C14.6438 3.97061 14.6348 4.01633 14.6348 4.0625V5.46875C14.6348 5.66295 14.7921 5.82031 14.9863 5.82031H15.6895V6.52344C15.6895 6.71764 15.8468 6.875 16.041 6.875H17.4473C17.6415 6.875 17.7988 6.71764 17.7988 6.52344V5.82031H18.502C18.6962 5.82031 18.8535 5.66295 18.8535 5.46875V4.0625C18.8535 3.8683 18.6962 3.71094 18.502 3.71094H17.7988V3.00781C17.7988 2.81361 17.6415 2.65625 17.4473 2.65625H16.041C15.9948 2.65624 15.9491 2.66533 15.9065 2.683C15.8638 2.70066 15.8251 2.72656 15.7924 2.75921C15.7598 2.79185 15.7339 2.83061 15.7162 2.87327C15.6985 2.91592 15.6894 2.96164 15.6895 3.00781Z" fill="#222222"/>
<path d="M16.7441 0.546875H4.54023C3.70923 0.546875 3.0332 1.22295 3.0332 2.05391V18.7273C3.0332 19.5583 3.70928 20.2344 4.54023 20.2344H5.14258V20.8367C5.14258 21.6677 5.81866 22.3438 6.64961 22.3438H7.25195V22.9461C7.25195 23.7771 7.92803 24.4531 8.75898 24.4531H19.1042C19.9352 24.4531 20.6113 23.777 20.6113 22.9461V6.45069C21.8207 3.68577 19.7903 0.546875 16.7441 0.546875ZM20.2598 4.76562C20.2598 6.70414 18.6827 8.28125 16.7441 8.28125H14.5005L14.6626 7.95716C14.6987 7.8849 14.7088 7.80239 14.6913 7.72353C14.6737 7.64467 14.6295 7.57427 14.5661 7.52417C13.7161 6.85198 13.2285 5.84652 13.2285 4.76562C13.2285 2.82711 14.8056 1.25 16.7441 1.25C18.6827 1.25 20.2598 2.82711 20.2598 4.76562ZM3.73633 18.7273V2.05391C3.73633 1.61061 4.09694 1.25 4.54023 1.25H14.4149C13.277 2.00642 12.5253 3.2998 12.5253 4.76562C12.5253 5.96656 13.0266 7.08969 13.9102 7.88966L13.6172 8.47559C13.5006 8.70856 13.6699 8.98438 13.9316 8.98438H16.3925V16.7188H13.9316C13.8854 16.7187 13.8397 16.7278 13.797 16.7455C13.7544 16.7632 13.7156 16.7891 13.683 16.8217C13.6503 16.8544 13.6244 16.8931 13.6068 16.9358C13.5891 16.9784 13.58 17.0241 13.58 17.0703V19.5312H4.54023C4.09694 19.5312 3.73633 19.1706 3.73633 18.7273ZM5.8457 20.8367V20.2344C14.4306 20.23 14.0335 20.2782 14.1803 20.1314C17.206 17.1052 17.0189 17.3043 17.0562 17.2318C17.0767 17.1924 17.0895 17.1495 17.094 17.1054C17.0973 17.0719 17.0951 17.4446 17.0957 8.96961C17.4556 8.93988 17.8101 8.86373 18.1504 8.74306V20.8367C18.1504 21.28 17.7898 21.6406 17.3465 21.6406H6.64961C6.20631 21.6406 5.8457 21.28 5.8457 20.8367ZM19.9082 22.9461C19.9082 23.3894 19.5476 23.75 19.1043 23.75H8.75898C8.31569 23.75 7.95508 23.3894 7.95508 22.9461V22.3438H17.3465C18.1775 22.3438 18.8535 21.6677 18.8535 20.8367V8.41803C19.2494 8.1883 19.6055 7.89611 19.9082 7.55277V22.9461Z" fill="#222222"/>
<path d="M5.14258 6.52344H7.25195C7.44616 6.52344 7.60352 6.36608 7.60352 6.17188V4.0625C7.60352 3.8683 7.44616 3.71094 7.25195 3.71094H5.14258C5.09641 3.71093 5.05069 3.72002 5.00803 3.73769C4.96538 3.75535 4.92662 3.78125 4.89397 3.81389C4.86133 3.84654 4.83543 3.8853 4.81776 3.92796C4.8001 3.97061 4.79101 4.01633 4.79102 4.0625V6.17188C4.79102 6.36608 4.94837 6.52344 5.14258 6.52344ZM5.14258 10.0391H7.25195C7.44616 10.0391 7.60352 9.8817 7.60352 9.6875V7.57812C7.60352 7.38392 7.44616 7.22656 7.25195 7.22656H5.14258C5.09641 7.22656 5.05069 7.23565 5.00803 7.25331C4.96538 7.27098 4.92662 7.29687 4.89397 7.32952C4.86133 7.36217 4.83543 7.40092 4.81776 7.44358C4.8001 7.48624 4.79101 7.53196 4.79102 7.57812V9.6875C4.79102 9.8817 4.94837 10.0391 5.14258 10.0391ZM15.3379 15.3125C15.3379 15.1183 15.1805 14.9609 14.9863 14.9609H5.14258C4.94837 14.9609 4.79102 15.1183 4.79102 15.3125C4.79102 15.5067 4.94837 15.6641 5.14258 15.6641H14.9863C15.0796 15.6641 15.169 15.627 15.2349 15.5611C15.3009 15.4952 15.3379 15.4057 15.3379 15.3125ZM5.14258 13.9062H14.9863C15.1805 13.9062 15.3379 13.7489 15.3379 13.5547C15.3379 13.3605 15.1805 13.2031 14.9863 13.2031H5.14258C4.94837 13.2031 4.79102 13.3605 4.79102 13.5547C4.79102 13.7489 4.94837 13.9062 5.14258 13.9062ZM5.14258 12.1484H9.71289C9.90709 12.1484 10.0645 11.9911 10.0645 11.7969C10.0645 11.6027 9.90709 11.4453 9.71289 11.4453H5.14258C4.94837 11.4453 4.79102 11.6027 4.79102 11.7969C4.79102 11.9911 4.94837 12.1484 5.14258 12.1484Z" fill="#222222"/>
</g>
<defs>
<clipPath id="clip0_12253_2211">
<rect width="24" height="24" fill="white" transform="translate(0 0.5)"/>
</clipPath>
</defs>
</svg>
