<svg width="61" height="60" viewBox="0 0 61 60" fill="none" xmlns="http://www.w3.org/2000/svg">
<rect x="0.5" width="60" height="60" rx="30" fill="#EEEEEE"/>
<path fill-rule="evenodd" clip-rule="evenodd" d="M30.5 40C24.98 40 20.5 35.53 20.5 30C20.5 24.48 24.98 20 30.5 20C36.03 20 40.5 24.48 40.5 30C40.5 35.53 36.03 40 30.5 40ZM33.69 33.71C33.81 33.78 33.94 33.82 34.08 33.82C34.33 33.82 34.58 33.69 34.72 33.45C34.93 33.1 34.82 32.64 34.46 32.42L30.9 30.3V25.68C30.9 25.26 30.56 24.93 30.15 24.93C29.74 24.93 29.4 25.26 29.4 25.68V30.73C29.4 30.99 29.54 31.23 29.77 31.37L33.69 33.71Z" fill="#1D242D"/>
</svg>
