<svg width="61" height="60" viewBox="0 0 61 60" fill="none" xmlns="http://www.w3.org/2000/svg">
<rect x="0.5" width="60" height="60" rx="30" fill="#EEEEEE"/>
<path fill-rule="evenodd" clip-rule="evenodd" d="M30.433 19.9287C29.8187 19.9601 29.2094 20.4412 28.7387 21.3704L26.9515 24.9447C26.7107 25.439 26.0643 25.9207 25.5193 26.0094L22.2872 26.5417C20.2212 26.8966 19.7396 28.3923 21.2225 29.8752L23.7448 32.3975C24.1631 32.8158 24.4039 33.6396 24.2898 34.248L23.5674 37.366C22.997 39.8249 24.3152 40.7756 26.4826 39.4954L29.5119 37.6956C29.7644 37.5429 30.0958 37.461 30.433 37.4497V19.9287Z" fill="#1D242D"/>
<path fill-rule="evenodd" clip-rule="evenodd" d="M30.4336 37.4514C30.8242 37.4384 31.2226 37.5204 31.5151 37.6972L34.5444 39.497C36.7118 40.7899 38.0299 39.8266 37.4596 37.3677L36.7371 34.2497C36.5977 33.654 36.8385 32.8301 37.2568 32.4118L39.7791 29.8895C41.262 28.3939 40.7804 26.8983 38.7144 26.5561L35.4823 26.0237C34.9373 25.9223 34.2909 25.4533 34.0501 24.959L32.2629 21.3847C31.7577 20.3808 31.0928 19.8966 30.4336 19.9304V37.4514Z" fill="#1D242D"/>
</svg>
