<svg width="24" height="24" viewBox="0 0 24 24" fill="none" xmlns="http://www.w3.org/2000/svg">
<g clip-path="url(#clip0_12358_4183)">
<path d="M15.999 2.10247e-05C15.991 -3.50412e-05 15.9831 2.10248e-05 15.9751 0.000189223C15.4298 -0.0091738 14.9801 0.425338 14.9708 0.970636C14.9707 0.980896 14.9707 0.991156 14.9708 1.00142V3.30808H16.9892V1.00142C16.9922 0.451464 16.5489 0.00316072 15.999 2.10247e-05Z" fill="url(#paint0_linear_12358_4183)"/>
<path d="M18.3526 2.4668H17.8865V3.76876C17.8877 3.82634 17.8772 3.88357 17.8557 3.937C17.8342 3.99042 17.8021 4.03896 17.7614 4.07968C17.7207 4.12041 17.6721 4.15249 17.6187 4.17399C17.5653 4.1955 17.508 4.20599 17.4505 4.20484H14.5002C14.4431 4.20579 14.3864 4.19508 14.3336 4.17337C14.2809 4.15166 14.2331 4.1194 14.1932 4.07858C14.1533 4.03776 14.1222 3.98923 14.1017 3.93596C14.0812 3.88268 14.0718 3.82579 14.0741 3.76876V2.4668H6.44908V3.76876C6.44542 3.88782 6.39471 4.00058 6.30806 4.08232C6.22141 4.16406 6.10589 4.20812 5.98682 4.20484H3.03663C2.91874 4.20789 2.80446 4.16398 2.71894 4.08278C2.63342 4.00158 2.58365 3.88973 2.58059 3.77185L2.58053 3.76876V2.4668H2.16256C1.15382 2.4719 0.338563 3.29074 0.337891 4.29948V6.22322H20.1853V4.29948C20.1809 3.28917 19.3629 2.47123 18.3526 2.4668Z" fill="url(#paint1_linear_12358_4183)"/>
<path d="M4.51178 0C3.94568 0 3.47759 0.43524 3.47759 1.00123V3.30789H5.55203V1.00123C5.55203 0.43524 5.07782 0 4.51178 0ZM0.337891 7.12038V19.394C0.337891 20.3998 1.15645 21.249 2.16256 21.249H10.4733C9.76645 20.0627 9.39215 18.708 9.38969 17.3271C9.38969 13.1446 12.7945 9.72644 16.9769 9.72644C18.0852 9.72914 19.1797 9.97173 20.1853 10.4375V7.12038H0.337891Z" fill="url(#paint2_linear_12358_4183)"/>
<path d="M16.9732 10.624C13.2794 10.6241 10.2851 13.6185 10.2852 17.3123C10.2852 21.0061 13.2796 24.0004 16.9734 24.0004C20.6672 24.0003 23.6615 21.0059 23.6615 17.3122C23.6573 13.6201 20.6653 10.6281 16.9732 10.624ZM19.6145 18.3341H16.6081C16.4869 18.3319 16.3713 18.2828 16.2857 18.197C16.2 18.1112 16.151 17.9956 16.149 17.8744V13.9408C16.149 13.8218 16.1963 13.7077 16.2804 13.6236C16.3645 13.5395 16.4786 13.4922 16.5976 13.4922C16.7165 13.4922 16.8306 13.5395 16.9147 13.6236C16.9988 13.7077 17.0461 13.8218 17.0461 13.9408V17.437H19.6145C19.7334 17.437 19.8475 17.4843 19.9316 17.5684C20.0158 17.6525 20.063 17.7666 20.063 17.8856C20.063 18.0045 20.0158 18.1186 19.9316 18.2027C19.8475 18.2869 19.7334 18.3341 19.6145 18.3341Z" fill="url(#paint3_linear_12358_4183)"/>
</g>
<defs>
<linearGradient id="paint0_linear_12358_4183" x1="14.9707" y1="1.65404" x2="16.9892" y2="1.65404" gradientUnits="userSpaceOnUse">
<stop stop-color="#F75A50"/>
<stop offset="1" stop-color="#BB0D02"/>
</linearGradient>
<linearGradient id="paint1_linear_12358_4183" x1="0.337891" y1="4.34501" x2="20.1853" y2="4.34501" gradientUnits="userSpaceOnUse">
<stop stop-color="#F75A50"/>
<stop offset="1" stop-color="#BB0D02"/>
</linearGradient>
<linearGradient id="paint2_linear_12358_4183" x1="0.337891" y1="10.6245" x2="20.1853" y2="10.6245" gradientUnits="userSpaceOnUse">
<stop stop-color="#F75A50"/>
<stop offset="1" stop-color="#BB0D02"/>
</linearGradient>
<linearGradient id="paint3_linear_12358_4183" x1="10.2852" y1="17.3122" x2="23.6615" y2="17.3122" gradientUnits="userSpaceOnUse">
<stop stop-color="#F75A50"/>
<stop offset="1" stop-color="#BB0D02"/>
</linearGradient>
<clipPath id="clip0_12358_4183">
<rect width="24" height="24" fill="white"/>
</clipPath>
</defs>
</svg>
