<svg width="36" height="35" viewBox="0 0 36 35" fill="none" xmlns="http://www.w3.org/2000/svg">
<path fill-rule="evenodd" clip-rule="evenodd" d="M18 0.0166699C27.6649 0.0166699 35.5 7.85216 35.5 17.5167C35.5 27.1812 27.6649 35.017 18 35.017C8.33508 35.017 0.5 27.1815 0.5 17.5166C0.5 7.85175 8.33508 0.0166016 18 0.0166016V0.0166699ZM14.6156 25.1825L18.9707 21.8132L16.2106 19.8522L14.6157 25.1824L14.6156 25.1825ZM14.0768 24.2553L15.5232 19.4257L13.6433 18.5175L14.0766 24.2553H14.0768ZM15.9561 18.767L25.1006 12.3091L14.018 17.8311L15.9561 18.767ZM24.2528 24.6081L29.1084 9.85119L16.6687 19.2196L24.2528 24.6081ZM29.1084 9.85119L6.8916 14.3875L13.1288 17.4012L29.1084 9.85119Z" fill="#F5382C"/>
</svg>
