<svg width="24" height="25" viewBox="0 0 24 25" fill="none" xmlns="http://www.w3.org/2000/svg">
<g clip-path="url(#clip0_12180_44205)">
<path fill-rule="evenodd" clip-rule="evenodd" d="M1.97297 2.86339H3.79266V5.28711C3.79266 5.96089 4.10672 6.55652 4.61344 6.97061C5.04141 7.32107 5.61094 7.53818 6.21937 7.53818C6.82828 7.53818 7.39781 7.32107 7.82625 6.97061C8.3325 6.55652 8.64656 5.96089 8.64656 5.28711V2.86339H12.3211V5.28711C12.3211 5.96089 12.6347 6.55652 13.1414 6.97061C13.5694 7.32107 14.1394 7.53818 14.7478 7.53818C15.3562 7.53818 15.9263 7.32107 16.3542 6.97061C16.8609 6.55652 17.175 5.96089 17.175 5.28711V2.86339H19.0744C19.6163 2.86339 20.1094 3.08564 20.4675 3.44265C20.8256 3.79872 21.0478 4.29142 21.0478 4.83325V11.5822C20.7725 11.4761 20.4911 11.3866 20.205 11.3141V8.56522H0.842812V20.0208C0.842812 20.8719 1.54078 21.5695 2.39438 21.5695H11.8345C11.9762 21.8603 12.1371 22.1412 12.3164 22.4104H1.97297C1.43203 22.4104 0.938906 22.189 0.580781 21.832C0.222188 21.4732 0 20.9814 0 20.4414V4.83278C0 4.29189 0.222187 3.80013 0.579375 3.44312C0.937969 3.08518 1.43156 2.86339 1.97297 2.86339ZM17.1694 23.0154C17.4211 23.0823 17.5706 23.3405 17.5036 23.5918C17.4361 23.8431 17.1773 23.9923 16.9261 23.9254C16.7073 23.8671 16.4922 23.7957 16.282 23.7116C15.0764 23.2301 14.1108 22.3626 13.493 21.2949C12.7683 20.0437 12.5227 18.5165 12.9263 17.0117C13.3298 15.5074 14.3077 14.3082 15.5616 13.5853C16.8145 12.8619 18.345 12.6163 19.8525 13.0201C20.3794 13.1609 20.8692 13.3715 21.3141 13.6391C21.669 13.8533 21.9991 14.1059 22.2984 14.3924L22.2727 14.143C22.2464 13.8852 22.4339 13.6546 22.6922 13.6284C22.9505 13.6022 23.1811 13.7898 23.2078 14.0476L23.3428 15.3493C23.3475 15.397 23.3452 15.4443 23.3358 15.4892C23.3161 15.7227 23.1234 15.9098 22.883 15.9173L21.5728 15.9636C21.3141 15.9716 21.097 15.7681 21.0891 15.5098C21.0811 15.251 21.2845 15.0349 21.5433 15.0269L21.5958 15.025C21.3623 14.8084 21.105 14.6142 20.827 14.4462C20.4558 14.2226 20.0475 14.0471 19.6087 13.9297C18.3516 13.5937 17.077 13.7977 16.0341 14.399C14.9892 14.9998 14.175 15.9997 13.8384 17.2546C13.5014 18.5095 13.7053 19.7817 14.3081 20.8237C14.6077 21.3426 15.0061 21.8049 15.4861 22.1792C15.9637 22.5526 16.5834 22.8595 17.1694 23.0154ZM18.1711 15.5084H19.1128L19.0903 16.1007C19.4864 16.1255 19.8323 16.1648 20.1291 16.2196L19.9139 17.3664H18.8016C18.6286 17.3664 18.5133 17.3935 18.4566 17.4478C18.3998 17.5021 18.3689 17.606 18.3638 17.7585L18.8311 17.8104C19.3997 17.8745 19.7916 18.0201 20.0067 18.2475C20.2214 18.4744 20.3292 18.7678 20.3292 19.128C20.3292 19.4883 20.2917 19.7761 20.2177 19.9904C20.1436 20.2047 20.0372 20.3689 19.8989 20.4826C19.6467 20.6749 19.3158 20.7863 18.9056 20.8158L18.8831 21.563H17.9264L17.9564 20.8158C17.4867 20.7816 17.0888 20.7217 16.7625 20.638L16.9772 19.4612C17.3878 19.5697 17.8177 19.624 18.2677 19.624C18.4556 19.624 18.6309 19.6142 18.7941 19.5945V19.2834L18.3342 19.2315C17.7408 19.1725 17.3456 18.9998 17.1478 18.7135C16.9748 18.4622 16.8886 18.1338 16.8886 17.729C16.8886 17.1966 16.9983 16.8091 17.2186 16.5672C17.4384 16.3253 17.7483 16.177 18.1491 16.1232L18.1711 15.5084ZM18.6769 23.1744C18.022 23.2292 18.1406 24.165 18.7275 24.1163C19.0617 24.1004 19.4255 24.0452 19.7503 23.9643C20.3531 23.8136 20.1258 22.8979 19.5202 23.0495C19.2412 23.1174 18.9633 23.1571 18.6769 23.1744ZM21.0764 22.3481C20.5673 22.7042 21.1083 23.4772 21.6178 23.1211C21.8939 22.9316 22.1733 22.6944 22.4062 22.4543C22.8342 22.0272 22.1808 21.3459 21.728 21.7974C21.5405 21.9935 21.3005 22.1947 21.0764 22.3481ZM22.6898 20.3816C22.4367 20.9369 23.2913 21.3398 23.5538 20.7634C23.6981 20.4372 23.7947 20.1345 23.8847 19.7906C24.0333 19.1987 23.1197 18.9568 22.9659 19.5711C22.8844 19.8626 22.8136 20.1027 22.6898 20.3816ZM23.0592 17.8685C23.1581 18.4632 24 18.3822 24 17.7978L23.9963 17.7468C23.9494 17.3996 23.8786 17.0796 23.7727 16.7446C23.5716 16.1424 22.6805 16.4554 22.8731 17.0328C22.9594 17.3054 23.0216 17.585 23.0592 17.8685ZM9.25266 15.82H11.5692C11.2688 16.6182 11.1033 17.4829 11.1033 18.386C11.1033 18.5539 11.1098 18.721 11.1211 18.8861H9.25266C9.05531 18.8861 8.89219 18.7247 8.89219 18.5273V16.1793C8.89219 15.9819 9.05437 15.82 9.25266 15.82ZM9.25266 10.828H12.0792C12.2775 10.828 12.4392 10.9903 12.4392 11.1873V13.5348C12.4392 13.7313 12.2766 13.8941 12.0792 13.8941H9.25266C9.05531 13.8941 8.89219 13.7322 8.89219 13.5348V11.1873C8.89219 10.9894 9.05437 10.828 9.25266 10.828ZM3.55125 10.828H6.37781C6.57609 10.828 6.73828 10.9903 6.73828 11.1873V13.5348C6.73828 13.7313 6.57516 13.8941 6.37781 13.8941H3.55125C3.35391 13.8941 3.19125 13.7322 3.19125 13.5348V11.1873C3.19125 10.9894 3.35344 10.828 3.55125 10.828ZM14.9536 10.828H17.7806C17.948 10.828 18.0891 10.944 18.1294 11.0984C16.8361 11.1471 15.6295 11.5312 14.5936 12.1657V11.1873C14.5936 10.9894 14.7558 10.828 14.9536 10.828ZM3.55125 15.82H6.37781C6.57609 15.82 6.73828 15.9828 6.73828 16.1793V18.5273C6.73828 18.7238 6.57516 18.8861 6.37781 18.8861H3.55125C3.35391 18.8861 3.19125 18.7247 3.19125 18.5273V16.1793C3.19125 15.9819 3.35344 15.82 3.55125 15.82ZM13.7953 1.66136C13.7953 1.23136 14.2214 0.881836 14.7478 0.881836C15.2747 0.881836 15.7008 1.23136 15.7008 1.66136V5.28711C15.7008 5.71711 15.2747 6.06663 14.7478 6.06663C14.2214 6.06663 13.7953 5.71711 13.7953 5.28711V1.66136ZM5.26688 1.66136C5.26688 1.23136 5.69297 0.881836 6.21937 0.881836C6.74625 0.881836 7.17234 1.23136 7.17234 1.66136V5.28711C7.17234 5.71711 6.74625 6.06663 6.21937 6.06663C5.69297 6.06663 5.26688 5.71711 5.26688 5.28711V1.66136Z" fill="#222222"/>
</g>
<defs>
<clipPath id="clip0_12180_44205">
<rect width="24" height="23.2364" fill="white" transform="translate(0 0.881836)"/>
</clipPath>
</defs>
</svg>
