<svg width="28" height="29" viewBox="0 0 28 29" fill="none" xmlns="http://www.w3.org/2000/svg">
<path d="M13.9987 2.83398C20.4422 2.83398 25.6654 8.05715 25.6654 14.5007C25.6654 20.9442 20.4422 26.1673 13.9987 26.1673C7.5552 26.1673 2.33203 20.9442 2.33203 14.5007C2.33203 8.05715 7.5552 2.83398 13.9987 2.83398ZM13.9987 7.50065C13.6893 7.50065 13.3925 7.62357 13.1737 7.84236C12.9549 8.06115 12.832 8.3579 12.832 8.66732V14.5007C12.8321 14.81 12.9551 15.1067 13.1739 15.3255L16.6739 18.8255C16.8939 19.038 17.1886 19.1556 17.4945 19.1529C17.8004 19.1503 18.093 19.0276 18.3093 18.8113C18.5256 18.595 18.6483 18.3023 18.651 17.9965C18.6536 17.6906 18.536 17.3959 18.3235 17.1758L15.1654 14.0177V8.66732C15.1654 8.3579 15.0424 8.06115 14.8237 7.84236C14.6049 7.62357 14.3081 7.50065 13.9987 7.50065Z" fill="white"/>
</svg>
